# xmcd
#
# Track frame offsets:
#	182
#	18380
#	31997
#	48015
#	60355
#	72027
#	91275
#	103435
#	115852
#	135847
#
# Disc length: 2023 seconds
# Revision: 4
# Processed by: cddbd v1.5.2PL0 Copyright (c) Steve Scherf et al.
# Submitted via: dBpowerAMP V12.0
#
DISCID=7607e50a
DTITLE=Ween - 12 Golden Country Greats
DYEAR=1996
DGENRE=Country
TTITLE0=I'm Holding You
TTITLE1=Japanese Cowboy
TTITLE2=Piss up a Rope
TTITLE3=I Don't Wanna Leave You on the Farm
TTITLE4=Pretty Girl
TTITLE5=Powder Blue
TTITLE6=Mister Richard Smoker
TTITLE7=Help Me Scrape the Mucus off My Brain
TTITLE8=You Were the Fool
TTITLE9=Fluffy
EXTD=
EXTT0=
EXTT1=
EXTT2=
EXTT3=
EXTT4=
EXTT5=
EXTT6=
EXTT7=
EXTT8=
EXTT9=
PLAYORDER=
